<?xml version="1.0" encoding="UTF-8"?>
<svg width="160px" height="35px" viewBox="0 0 160 35" version="1.1" xmlns="http://www.w3.org/2000/svg" xmlns:xlink="http://www.w3.org/1999/xlink">
    <title>Mini Icon</title>
    <g id="Icons" stroke="none" stroke-width="1" fill="none" fill-rule="evenodd">
        <g id="Website-Icon" transform="translate(-3.000000, 0.000000)">
            <rect id="Rectangle" opacity="0" x="0" y="0" width="144.869565" height="35"></rect>
            <rect id="Rectangle" stroke="#979797" stroke-width="0.1" fill="#FA6400" x="3.15434783" y="2.36304348" width="30.3347826" height="30.3347826" rx="5"></rect>
            <g id="Group" transform="translate(10.804348, 6.908696)" fill="#FFFFFF">
                <path d="M7.48958517,0 C11.5448633,0 14.8473711,3.2229926 14.9753221,7.24719118 L14.9791703,7.47520976 L14.9791703,12.3340961 L14.6686138,12.3345907 C14.870446,12.9838485 14.9791703,13.6741167 14.9791703,14.3897788 C14.9791703,18.2085898 11.8834123,21.3043478 8.0646013,21.3043478 L6.91456903,21.3043478 C3.095758,21.3043478 4.6766947e-16,18.2085898 0,14.3897788 C-8.76433325e-17,13.6741167 0.108724327,12.9838485 0.310556496,12.3345907 L0,12.3340961 L0,7.48958517 C0,3.3532015 3.3532015,0 7.48958517,0 Z M7.48958517,8.42398639 C4.17889037,8.42398639 1.49504195,11.1078348 1.49504195,14.4185296 C1.49504195,17.7292244 4.17889037,20.4130728 7.48958517,20.4130728 C10.80028,20.4130728 13.4841284,17.7292244 13.4841284,14.4185296 C13.4841284,11.1078348 10.80028,8.42398639 7.48958517,8.42398639 Z M7.48958517,1.49504195 C4.18357216,1.49504195 1.50263389,4.17130505 1.49505805,7.47554356 L13.484,7.475 L13.4799937,7.26485148 C13.3618115,4.05828354 10.7250369,1.49504195 7.48958517,1.49504195 Z" id="Combined-Shape"></path>
                <path d="M7.49175973,9.76553953 L11.3031169,17.2457492 L7.47810242,14.5175395 L3.61910242,17.2205008 L7.49110242,9.78153953 L7.49175973,9.76553953 Z" id="Combined-Shape"></path>
            </g>
            <path d="M46.1026087,24.5304348 C48.5028986,24.5304348 50.3599275,23.8771014 51.6736957,22.5704348 C52.9874638,21.2637681 53.6443478,19.4102899 53.6443478,17.01 C53.6443478,14.6097101 52.9874638,12.7597826 51.6736957,11.4602174 C50.3599275,10.1606522 48.5028986,9.51086957 46.1026087,9.51086957 L46.1026087,9.51086957 L41.0534783,9.51086957 L41.0534783,24.5304348 L46.1026087,24.5304348 Z M45.996087,23.0391304 L42.8004348,23.0391304 L42.8004348,11.0021739 L45.996087,11.0021739 C49.8876812,11.0021739 51.8334783,13.0047826 51.8334783,17.01 C51.8334783,21.0294203 49.8876812,23.0391304 45.996087,23.0391304 L45.996087,23.0391304 Z M59.843913,24.6795652 C60.5682609,24.6795652 61.2073913,24.5126812 61.7613043,24.178913 C62.3152174,23.8451449 62.7271014,23.3728986 62.9969565,22.7621739 L62.9969565,22.7621739 L62.9969565,24.5304348 L64.68,24.5304348 L64.68,17.99 C64.68,16.6123188 64.3568841,15.5861594 63.7106522,14.9115217 C63.0644203,14.2368841 62.0808696,13.8995652 60.76,13.8995652 C60.0498551,13.8995652 59.3148551,14.0167391 58.555,14.251087 C57.7951449,14.4854348 57.1453623,14.7943478 56.6056522,15.1778261 L56.6056522,15.1778261 L57.1808696,16.4347826 C58.3597101,15.6962319 59.5456522,15.3269565 60.7386957,15.3269565 C61.534058,15.3269565 62.1092754,15.5222464 62.4643478,15.9128261 C62.8194203,16.3034058 62.9969565,16.9318841 62.9969565,17.7982609 L62.9969565,17.7982609 L62.9969565,18.5013043 L62.5282609,18.5013043 C60.9091304,18.5013043 59.6450725,18.5971739 58.736087,18.788913 C57.8271014,18.9806522 57.1737681,19.2931159 56.776087,19.7263043 C56.3784058,20.1594928 56.1795652,20.7666667 56.1795652,21.5478261 C56.1795652,22.1301449 56.3428986,22.6627536 56.6695652,23.1456522 C56.9962319,23.6285507 57.4400725,24.0049275 58.001087,24.2747826 C58.5621014,24.5446377 59.1763768,24.6795652 59.843913,24.6795652 Z M60.0782609,23.316087 C59.4675362,23.316087 58.9597826,23.135 58.555,22.7728261 C58.1502174,22.4106522 57.9478261,21.9526087 57.9478261,21.3986957 C57.9478261,20.9157971 58.0863043,20.5500725 58.3632609,20.3015217 C58.6402174,20.052971 59.1053623,19.8754348 59.7586957,19.768913 C60.412029,19.6623913 61.3636232,19.6091304 62.6134783,19.6091304 L62.6134783,19.6091304 L62.9969565,19.6091304 L62.9969565,20.2269565 C62.9969565,21.135942 62.7235507,21.8780435 62.1767391,22.4532609 C61.6299275,23.0284783 60.9304348,23.316087 60.0782609,23.316087 Z M69.5586957,24.5304348 L69.5586957,18.6078261 C69.5586957,17.7698551 69.7965942,17.0668116 70.2723913,16.4986957 C70.7481884,15.9305797 71.5186957,15.5968116 72.583913,15.4973913 L72.583913,15.4973913 L73.7130435,15.3908696 L73.563913,13.8995652 L72.946087,13.9421739 C71.2417391,14.0842029 70.0984058,14.7588406 69.516087,15.966087 L69.516087,15.966087 L69.516087,14.1552174 L67.8330435,14.1552174 L67.8330435,24.5304348 L69.5586957,24.5304348 Z M77.0791304,24.5304348 L77.0791304,19.5665217 L82.3626087,24.5304348 L84.5995652,24.5304348 L78.953913,19.1404348 L84.1095652,14.1765217 L81.9152174,14.1765217 L77.0791304,18.8634783 L77.0791304,9.51086957 L75.3534783,9.51086957 L75.3534783,24.5304348 L77.0791304,24.5304348 Z M93.3769565,24.5304348 L93.3556522,12.9834783 L98.2556522,22.1443478 L99.4913043,22.1443478 L104.37,12.8982609 L104.348696,24.5304348 L105.946522,24.5304348 L105.946522,9.51086957 L104.51913,9.51086957 L98.8947826,20.3973913 L93.2065217,9.51086957 L91.7578261,9.51086957 L91.7578261,24.5304348 L93.3769565,24.5304348 Z M112.721304,24.6795652 C113.445652,24.6795652 114.084783,24.5126812 114.638696,24.178913 C115.192609,23.8451449 115.604493,23.3728986 115.874348,22.7621739 L115.874348,22.7621739 L115.874348,24.5304348 L117.557391,24.5304348 L117.557391,17.99 C117.557391,16.6123188 117.234275,15.5861594 116.588043,14.9115217 C115.941812,14.2368841 114.958261,13.8995652 113.637391,13.8995652 C112.927246,13.8995652 112.192246,14.0167391 111.432391,14.251087 C110.672536,14.4854348 110.022754,14.7943478 109.483043,15.1778261 L109.483043,15.1778261 L110.058261,16.4347826 C111.237101,15.6962319 112.423043,15.3269565 113.616087,15.3269565 C114.411449,15.3269565 114.986667,15.5222464 115.341739,15.9128261 C115.696812,16.3034058 115.874348,16.9318841 115.874348,17.7982609 L115.874348,17.7982609 L115.874348,18.5013043 L115.405652,18.5013043 C113.786522,18.5013043 112.522464,18.5971739 111.613478,18.788913 C110.704493,18.9806522 110.051159,19.2931159 109.653478,19.7263043 C109.255797,20.1594928 109.056957,20.7666667 109.056957,21.5478261 C109.056957,22.1301449 109.22029,22.6627536 109.546957,23.1456522 C109.873623,23.6285507 110.317464,24.0049275 110.878478,24.2747826 C111.439493,24.5446377 112.053768,24.6795652 112.721304,24.6795652 Z M112.955652,23.316087 C112.344928,23.316087 111.837174,23.135 111.432391,22.7728261 C111.027609,22.4106522 110.825217,21.9526087 110.825217,21.3986957 C110.825217,20.9157971 110.963696,20.5500725 111.240652,20.3015217 C111.517609,20.052971 111.982754,19.8754348 112.636087,19.768913 C113.28942,19.6623913 114.241014,19.6091304 115.49087,19.6091304 L115.49087,19.6091304 L115.874348,19.6091304 L115.874348,20.2269565 C115.874348,21.135942 115.600942,21.8780435 115.05413,22.4532609 C114.507319,23.0284783 113.807826,23.316087 112.955652,23.316087 Z M122.436087,28.3652174 L122.436087,22.6343478 C122.748551,23.2876812 123.206594,23.7918841 123.810217,24.1469565 C124.413841,24.502029 125.120435,24.6795652 125.93,24.6795652 C126.853188,24.6795652 127.659203,24.4594203 128.348043,24.0191304 C129.036884,23.5788406 129.573043,22.9574638 129.956522,22.155 C130.34,21.3525362 130.531739,20.4115942 130.531739,19.3321739 C130.531739,18.2527536 130.34,17.3047101 129.956522,16.4880435 C129.573043,15.6713768 129.033333,15.0357971 128.337391,14.5813043 C127.641449,14.1268116 126.838986,13.8995652 125.93,13.8995652 C125.120435,13.8995652 124.413841,14.0771014 123.810217,14.4321739 C123.206594,14.7872464 122.748551,15.2914493 122.436087,15.9447826 L122.436087,15.9447826 L122.436087,14.1552174 L120.710435,14.1552174 L120.710435,28.3652174 L122.436087,28.3652174 Z M125.58913,23.2521739 C124.580725,23.2521739 123.803116,22.9077536 123.256304,22.218913 C122.709493,21.5300725 122.436087,20.5536232 122.436087,19.2895652 C122.436087,18.0255072 122.709493,17.0526087 123.256304,16.3708696 C123.803116,15.6891304 124.580725,15.3482609 125.58913,15.3482609 C126.597536,15.3482609 127.378696,15.6997826 127.932609,16.4028261 C128.486522,17.1058696 128.763478,18.0823188 128.763478,19.3321739 C128.763478,20.582029 128.486522,21.5478261 127.932609,22.2295652 C127.378696,22.9113043 126.597536,23.2521739 125.58913,23.2521739 Z M136.624783,24.6795652 C137.888841,24.6795652 138.886594,24.4097101 139.618043,23.87 C140.349493,23.3302899 140.715217,22.605942 140.715217,21.6969565 C140.715217,20.9584058 140.48087,20.3583333 140.012174,19.8967391 C139.543478,19.4351449 138.826232,19.0907246 137.860435,18.8634783 L137.860435,18.8634783 L136.092174,18.4373913 C135.538261,18.3095652 135.137029,18.1213768 134.888478,17.8728261 C134.639928,17.6242754 134.515652,17.294058 134.515652,16.8821739 C134.515652,16.3850725 134.718043,15.9980435 135.122826,15.721087 C135.527609,15.4441304 136.092174,15.3056522 136.816522,15.3056522 C137.952754,15.3056522 138.996667,15.7104348 139.948261,16.52 L139.948261,16.52 L140.523478,15.2630435 C140.083188,14.8227536 139.536377,14.4854348 138.883043,14.251087 C138.22971,14.0167391 137.54087,13.8995652 136.816522,13.8995652 C135.609275,13.8995652 134.643478,14.1836232 133.91913,14.7517391 C133.194783,15.3198551 132.832609,16.0655072 132.832609,16.9886957 C132.832609,17.6988406 133.066957,18.2953623 133.535652,18.7782609 C134.004348,19.2611594 134.678986,19.602029 135.559565,19.8008696 L135.559565,19.8008696 L137.306522,20.2056522 C137.931449,20.3476812 138.378841,20.5394203 138.648696,20.7808696 C138.918551,21.0223188 139.053478,21.3489855 139.053478,21.7608696 C139.053478,22.257971 138.851087,22.6378986 138.446304,22.9006522 C138.041522,23.1634058 137.455652,23.2947826 136.688696,23.2947826 C135.964348,23.2947826 135.314565,23.198913 134.739348,23.0071739 C134.16413,22.8154348 133.599565,22.4994203 133.045652,22.0591304 L133.045652,22.0591304 L132.470435,23.3373913 C133.493043,24.2321739 134.877826,24.6795652 136.624783,24.6795652 Z" id="DarkMaps" fill="#FFFFFF" fill-rule="nonzero"></path>
        </g>
    </g>
</svg>
