<?xml version="1.0" encoding="UTF-8"?>
<svg width="2380px" height="575px" viewBox="0 0 2380 575" version="1.1" xmlns="http://www.w3.org/2000/svg" xmlns:xlink="http://www.w3.org/1999/xlink">
    <title>Website Icon</title>
    <g id="Page-1" stroke="none" stroke-width="1" fill="none" fill-rule="evenodd">
        <g id="Website-Icon">
            <rect fill="#FFFFFF" x="0" y="0" width="2380" height="575"></rect>
            <rect id="Rectangle" stroke="#979797" fill="#FA6400" x="51.5" y="38.5" width="499" height="499" rx="55"></rect>
            <g id="Group" transform="translate(177.500000, 113.500000)" fill="#FFFFFF">
                <path d="M123.043185,0 C190.919252,0 245.95858,54.960612 246.086148,122.806814 L246.08637,330 C246.08637,341.045695 237.132065,350 226.08637,350 L20,350 C8.954305,350 8.45813486e-15,341.045695 0,330 L0,122.807018 L0.002,122.807 L0.0164842713,121.008441 C1.10305286,53.9920529 55.7678591,0 123.043185,0 Z M123.043185,138.394062 C68.6531989,138.394062 24.5614035,182.485857 24.5614035,236.875843 C24.5614035,291.265829 68.6531989,335.357625 123.043185,335.357625 C177.433171,335.357625 221.524966,291.265829 221.524966,236.875843 C221.524966,182.485857 177.433171,138.394062 123.043185,138.394062 Z M123.043185,24.5614035 C68.7319959,24.5614035 24.6891804,68.5255362 24.561681,122.806859 L221.522,122.807 L221.511773,121.414609 C220.642101,67.7757722 176.889271,24.5614035 123.043185,24.5614035 Z" id="Combined-Shape"></path>
                <path d="M123.07891,160.433864 L185.694064,283.323023 L122.864683,238.505864 L59.4566826,282.908228 L123.076683,160.694864 L123.07891,160.433864 Z" id="Combined-Shape"></path>
            </g>
            <path d="M757.4,403 C796.833333,403 827.341667,392.266667 848.925,370.8 C870.508333,349.333333 881.3,318.883333 881.3,279.45 C881.3,240.016667 870.508333,209.625 848.925,188.275 C827.341667,166.925 796.833333,156.25 757.4,156.25 L757.4,156.25 L674.45,156.25 L674.45,403 L757.4,403 Z M755.65,378.5 L703.15,378.5 L703.15,180.75 L755.65,180.75 C819.583333,180.75 851.55,213.65 851.55,279.45 C851.55,345.483333 819.583333,378.5 755.65,378.5 L755.65,378.5 Z M983.15,405.45 C995.05,405.45 1005.55,402.708333 1014.65,397.225 C1023.75,391.741667 1030.51667,383.983333 1034.95,373.95 L1034.95,373.95 L1034.95,403 L1062.6,403 L1062.6,295.55 C1062.6,272.916667 1057.29167,256.058333 1046.675,244.975 C1036.05833,233.891667 1019.9,228.35 998.2,228.35 C986.533333,228.35 974.458333,230.275 961.975,234.125 C949.491667,237.975 938.816667,243.05 929.95,249.35 L929.95,249.35 L939.4,270 C958.766667,257.866667 978.25,251.8 997.85,251.8 C1010.91667,251.8 1020.36667,255.008333 1026.2,261.425 C1032.03333,267.841667 1034.95,278.166667 1034.95,292.4 L1034.95,292.4 L1034.95,303.95 L1027.25,303.95 C1000.65,303.95 979.883333,305.525 964.95,308.675 C950.016667,311.825 939.283333,316.958333 932.75,324.075 C926.216667,331.191667 922.95,341.166667 922.95,354 C922.95,363.566667 925.633333,372.316667 931,380.25 C936.366667,388.183333 943.658333,394.366667 952.875,398.8 C962.091667,403.233333 972.183333,405.45 983.15,405.45 Z M987,383.05 C976.966667,383.05 968.625,380.075 961.975,374.125 C955.325,368.175 952,360.65 952,351.55 C952,343.616667 954.275,337.608333 958.825,333.525 C963.375,329.441667 971.016667,326.525 981.75,324.775 C992.483333,323.025 1008.11667,322.15 1028.65,322.15 L1028.65,322.15 L1034.95,322.15 L1034.95,332.3 C1034.95,347.233333 1030.45833,359.425 1021.475,368.875 C1012.49167,378.325 1001,383.05 987,383.05 Z M1142.75,403 L1142.75,305.7 C1142.75,291.933333 1146.65833,280.383333 1154.475,271.05 C1162.29167,261.716667 1174.95,256.233333 1192.45,254.6 L1192.45,254.6 L1211,252.85 L1208.55,228.35 L1198.4,229.05 C1170.4,231.383333 1151.61667,242.466667 1142.05,262.3 L1142.05,262.3 L1142.05,232.55 L1114.4,232.55 L1114.4,403 L1142.75,403 Z M1266.3,403 L1266.3,321.45 L1353.1,403 L1389.85,403 L1297.1,314.45 L1381.8,232.9 L1345.75,232.9 L1266.3,309.9 L1266.3,156.25 L1237.95,156.25 L1237.95,403 L1266.3,403 Z M1534.05,403 L1533.7,213.3 L1614.2,363.8 L1634.5,363.8 L1714.65,211.9 L1714.3,403 L1740.55,403 L1740.55,156.25 L1717.1,156.25 L1624.7,335.1 L1531.25,156.25 L1507.45,156.25 L1507.45,403 L1534.05,403 Z M1851.85,405.45 C1863.75,405.45 1874.25,402.708333 1883.35,397.225 C1892.45,391.741667 1899.21667,383.983333 1903.65,373.95 L1903.65,373.95 L1903.65,403 L1931.3,403 L1931.3,295.55 C1931.3,272.916667 1925.99167,256.058333 1915.375,244.975 C1904.75833,233.891667 1888.6,228.35 1866.9,228.35 C1855.23333,228.35 1843.15833,230.275 1830.675,234.125 C1818.19167,237.975 1807.51667,243.05 1798.65,249.35 L1798.65,249.35 L1808.1,270 C1827.46667,257.866667 1846.95,251.8 1866.55,251.8 C1879.61667,251.8 1889.06667,255.008333 1894.9,261.425 C1900.73333,267.841667 1903.65,278.166667 1903.65,292.4 L1903.65,292.4 L1903.65,303.95 L1895.95,303.95 C1869.35,303.95 1848.58333,305.525 1833.65,308.675 C1818.71667,311.825 1807.98333,316.958333 1801.45,324.075 C1794.91667,331.191667 1791.65,341.166667 1791.65,354 C1791.65,363.566667 1794.33333,372.316667 1799.7,380.25 C1805.06667,388.183333 1812.35833,394.366667 1821.575,398.8 C1830.79167,403.233333 1840.88333,405.45 1851.85,405.45 Z M1855.7,383.05 C1845.66667,383.05 1837.325,380.075 1830.675,374.125 C1824.025,368.175 1820.7,360.65 1820.7,351.55 C1820.7,343.616667 1822.975,337.608333 1827.525,333.525 C1832.075,329.441667 1839.71667,326.525 1850.45,324.775 C1861.18333,323.025 1876.81667,322.15 1897.35,322.15 L1897.35,322.15 L1903.65,322.15 L1903.65,332.3 C1903.65,347.233333 1899.15833,359.425 1890.175,368.875 C1881.19167,378.325 1869.7,383.05 1855.7,383.05 Z M2011.45,466 L2011.45,371.85 C2016.58333,382.583333 2024.10833,390.866667 2034.025,396.7 C2043.94167,402.533333 2055.55,405.45 2068.85,405.45 C2084.01667,405.45 2097.25833,401.833333 2108.575,394.6 C2119.89167,387.366667 2128.7,377.158333 2135,363.975 C2141.3,350.791667 2144.45,335.333333 2144.45,317.6 C2144.45,299.866667 2141.3,284.291667 2135,270.875 C2128.7,257.458333 2119.83333,247.016667 2108.4,239.55 C2096.96667,232.083333 2083.78333,228.35 2068.85,228.35 C2055.55,228.35 2043.94167,231.266667 2034.025,237.1 C2024.10833,242.933333 2016.58333,251.216667 2011.45,261.95 L2011.45,261.95 L2011.45,232.55 L1983.1,232.55 L1983.1,466 L2011.45,466 Z M2063.25,382 C2046.68333,382 2033.90833,376.341667 2024.925,365.025 C2015.94167,353.708333 2011.45,337.666667 2011.45,316.9 C2011.45,296.133333 2015.94167,280.15 2024.925,268.95 C2033.90833,257.75 2046.68333,252.15 2063.25,252.15 C2079.81667,252.15 2092.65,257.925 2101.75,269.475 C2110.85,281.025 2115.4,297.066667 2115.4,317.6 C2115.4,338.133333 2110.85,354 2101.75,365.2 C2092.65,376.4 2079.81667,382 2063.25,382 Z M2244.55,405.45 C2265.31667,405.45 2281.70833,401.016667 2293.725,392.15 C2305.74167,383.283333 2311.75,371.383333 2311.75,356.45 C2311.75,344.316667 2307.9,334.458333 2300.2,326.875 C2292.5,319.291667 2280.71667,313.633333 2264.85,309.9 L2264.85,309.9 L2235.8,302.9 C2226.7,300.8 2220.10833,297.708333 2216.025,293.625 C2211.94167,289.541667 2209.9,284.116667 2209.9,277.35 C2209.9,269.183333 2213.225,262.825 2219.875,258.275 C2226.525,253.725 2235.8,251.45 2247.7,251.45 C2266.36667,251.45 2283.51667,258.1 2299.15,271.4 L2299.15,271.4 L2308.6,250.75 C2301.36667,243.516667 2292.38333,237.975 2281.65,234.125 C2270.91667,230.275 2259.6,228.35 2247.7,228.35 C2227.86667,228.35 2212,233.016667 2200.1,242.35 C2188.2,251.683333 2182.25,263.933333 2182.25,279.1 C2182.25,290.766667 2186.1,300.566667 2193.8,308.5 C2201.5,316.433333 2212.58333,322.033333 2227.05,325.3 L2227.05,325.3 L2255.75,331.95 C2266.01667,334.283333 2273.36667,337.433333 2277.8,341.4 C2282.23333,345.366667 2284.45,350.733333 2284.45,357.5 C2284.45,365.666667 2281.125,371.908333 2274.475,376.225 C2267.825,380.541667 2258.2,382.7 2245.6,382.7 C2233.7,382.7 2223.025,381.125 2213.575,377.975 C2204.125,374.825 2194.85,369.633333 2185.75,362.4 L2185.75,362.4 L2176.3,383.4 C2193.1,398.1 2215.85,405.45 2244.55,405.45 Z" id="DarkMaps" fill="#000000" fill-rule="nonzero"></path>
        </g>
    </g>
</svg>
